<?xml version="1.0" standalone="no"?>
<!DOCTYPE svg PUBLIC "-//W3C//DTD SVG 20010904//EN"
 "http://www.w3.org/TR/2001/REC-SVG-20010904/DTD/svg10.dtd">
<svg version="1.0" xmlns="http://www.w3.org/2000/svg"
 width="512.000000pt" height="512.000000pt" viewBox="0 0 512.000000 512.000000"
 preserveAspectRatio="xMidYMid meet">

<g transform="translate(0.000000,512.000000) scale(0.100000,-0.100000)"
fill="#000000" stroke="none">
<path d="M1145 4949 c-33 -5 -100 -20 -149 -34 -435 -125 -763 -502 -825 -949
-15 -107 -15 -2705 0 -2812 60 -430 363 -795 777 -934 183 -61 148 -60 1607
-60 1460 0 1435 -1 1617 60 411 138 709 491 773 917 23 149 22 2713 0 2853
-81 499 -480 890 -979 959 -95 13 -2730 13 -2821 0z m2870 -333 c309 -93 515
-300 602 -606 17 -62 18 -135 18 -1450 l0 -1385 -23 -79 c-86 -296 -300 -507
-602 -593 -62 -17 -135 -18 -1450 -18 -1315 0 -1388 1 -1450 18 -307 87 -520
300 -607 607 -17 62 -18 135 -18 1450 0 1531 -5 1417 62 1575 109 259 368 458
648 498 17 2 644 4 1395 3 1287 -2 1368 -3 1425 -20z"/>
<path d="M1692 3344 c-18 -10 -45 -33 -60 -52 l-27 -35 -3 -380 c-2 -305 0
-397 13 -468 30 -178 102 -318 230 -445 65 -66 98 -90 175 -128 206 -101 394
-101 599 0 208 102 363 321 406 571 13 74 15 161 13 471 -3 366 -4 382 -24
408 -39 53 -71 69 -134 69 -63 0 -95 -16 -134 -69 -20 -26 -21 -44 -27 -434
-6 -450 -6 -453 -74 -567 -44 -75 -114 -141 -185 -174 -46 -21 -70 -26 -140
-26 -71 0 -94 5 -143 27 -72 34 -152 114 -195 195 -56 107 -62 156 -62 561 0
403 -1 409 -64 457 -46 35 -116 43 -164 19z"/>
<path d="M3292 3344 c-18 -10 -45 -33 -60 -52 l-27 -35 0 -697 0 -697 29 -37
c55 -72 150 -85 222 -31 66 51 64 24 64 765 0 551 -2 677 -14 704 -32 77 -141
117 -214 80z"/>
</g>
</svg>
